<svg id="visual" viewBox="0 0 900 250" width="900" height="250" xmlns="http://www.w3.org/2000/svg" xmlns:xlink="http://www.w3.org/1999/xlink" version="1.1"><rect x="0" y="0" width="900" height="250" fill="#24272b"></rect><path d="M0 122L18.8 127.8C37.7 133.7 75.3 145.3 112.8 149.3C150.3 153.3 187.7 149.7 225.2 137.2C262.7 124.7 300.3 103.3 337.8 92.7C375.3 82 412.7 82 450.2 99.3C487.7 116.7 525.3 151.3 562.8 167.8C600.3 184.3 637.7 182.7 675.2 173.3C712.7 164 750.3 147 787.8 140.7C825.3 134.3 862.7 138.7 881.3 140.8L900 143L900 251L881.3 251C862.7 251 825.3 251 787.8 251C750.3 251 712.7 251 675.2 251C637.7 251 600.3 251 562.8 251C525.3 251 487.7 251 450.2 251C412.7 251 375.3 251 337.8 251C300.3 251 262.7 251 225.2 251C187.7 251 150.3 251 112.8 251C75.3 251 37.7 251 18.8 251L0 251Z" fill="#07070a" stroke-linecap="round" stroke-linejoin="miter"></path></svg>